<svg width="23" height="23" viewBox="0 0 23 23" fill="none" xmlns="http://www.w3.org/2000/svg">
<path d="M17.3298 22.9992C17.4259 22.9992 21.7763 22.9983 21.6811 22.9983C22.0676 22.9983 22.3814 22.6845 22.3814 22.298C22.0546 14.9615 24.1013 7.21973 16.4632 7.21973C14.9944 7.21973 13.8245 7.72115 12.9813 8.38412C12.9813 7.0199 11.5069 7.77438 8.10335 7.57175C7.71678 7.57175 7.40304 7.88549 7.40304 8.27207C7.68503 21.4996 6.77369 22.9983 8.10335 22.9983H12.4546C13.718 22.9983 12.914 21.2167 13.155 15.3527C13.155 12.9306 13.8553 12.4562 15.0654 12.4562C16.4044 12.4562 16.6294 13.3862 16.6294 15.4704C16.8694 21.2288 16.0711 22.9992 17.3298 22.9992ZM15.0654 11.0556C10.8719 11.0556 11.7543 15.6665 11.7543 21.5976H8.80367V8.97238H11.5806V10.1844C11.5806 10.8567 12.605 11.1872 12.9617 10.5112C13.4211 9.63908 14.6144 8.62036 16.4632 8.62036C19.7566 8.62036 20.9807 10.2385 20.9807 14.5926V21.5986H18.0301C18.0301 14.9279 18.736 11.0556 15.0654 11.0556Z" fill="#99AFD0"/>
<path d="M1.01883 7.5735C-0.307096 7.5735 0.600512 9.0535 0.318518 22.2997C0.318518 22.6863 0.632259 23 1.01883 23H5.37479C6.70072 23 5.79311 21.52 6.0751 8.27382C6.0751 7.06461 4.31871 7.77799 1.01883 7.5735ZM4.67447 21.5994H1.71915V8.97413H4.67447V21.5994Z" fill="#99AFD0"/>
<path d="M3.19484 0C-1.07801 0 -1.05186 6.46997 3.19484 6.46997C7.43875 6.46997 7.47236 0 3.19484 0ZM3.19484 5.06934C0.796965 5.06934 0.774555 1.40063 3.19484 1.40063C5.6198 1.40063 5.58898 5.06934 3.19484 5.06934Z" fill="#99AFD0"/>
</svg>
