<?xml version="1.0" encoding="utf-8"?>
<!-- Generator: Adobe Illustrator 25.0.0, SVG Export Plug-In . SVG Version: 6.00 Build 0)  -->
<svg version="1.1" id="Layer_1" xmlns="http://www.w3.org/2000/svg" xmlns:xlink="http://www.w3.org/1999/xlink" x="0px" y="0px"
	 viewBox="0 0 225 24" style="enable-background:new 0 0 225 24;" xml:space="preserve">
<style type="text/css">
	.st0{fill:#333333;}
</style>
<g>
	<path class="st0" d="M6.46,14.5c0,0.55,0.09,1.03,0.28,1.42c0.19,0.39,0.45,0.71,0.79,0.96c0.34,0.25,0.73,0.43,1.17,0.55
		c0.44,0.11,0.92,0.17,1.43,0.17c0.55,0,1.03-0.06,1.42-0.19c0.39-0.13,0.71-0.3,0.95-0.5c0.24-0.2,0.42-0.44,0.53-0.7
		c0.11-0.26,0.16-0.53,0.16-0.8c0-0.55-0.13-0.96-0.38-1.23c-0.25-0.26-0.53-0.45-0.82-0.56c-0.51-0.19-1.11-0.37-1.8-0.54
		c-0.68-0.17-1.53-0.39-2.53-0.66c-0.62-0.16-1.14-0.38-1.55-0.64c-0.41-0.26-0.74-0.56-0.99-0.88c-0.24-0.33-0.42-0.67-0.52-1.04
		C4.52,9.5,4.47,9.13,4.47,8.75c0-0.73,0.15-1.36,0.46-1.9c0.3-0.54,0.71-0.98,1.21-1.33c0.5-0.35,1.07-0.61,1.71-0.78
		c0.64-0.17,1.28-0.25,1.93-0.25c0.76,0,1.47,0.1,2.14,0.3c0.67,0.2,1.26,0.49,1.77,0.88c0.51,0.39,0.91,0.88,1.21,1.45
		c0.3,0.58,0.45,1.24,0.45,2H12.8c-0.07-0.93-0.39-1.59-0.95-1.98c-0.57-0.39-1.29-0.58-2.17-0.58c-0.3,0-0.6,0.03-0.91,0.09
		C8.44,6.71,8.16,6.81,7.9,6.95C7.65,7.09,7.43,7.29,7.26,7.53C7.09,7.77,7.01,8.08,7.01,8.44c0,0.51,0.16,0.92,0.48,1.21
		c0.32,0.29,0.73,0.51,1.25,0.66c0.05,0.01,0.27,0.07,0.64,0.17c0.37,0.1,0.79,0.21,1.25,0.34c0.46,0.12,0.91,0.24,1.35,0.35
		c0.44,0.12,0.75,0.2,0.94,0.25c0.47,0.15,0.89,0.35,1.24,0.61c0.35,0.26,0.65,0.55,0.88,0.88c0.24,0.33,0.41,0.69,0.53,1.07
		c0.11,0.38,0.17,0.76,0.17,1.14c0,0.81-0.17,1.51-0.5,2.08c-0.33,0.58-0.77,1.05-1.31,1.41c-0.54,0.37-1.16,0.63-1.85,0.8
		c-0.69,0.17-1.39,0.25-2.11,0.25c-0.83,0-1.6-0.1-2.34-0.31c-0.73-0.2-1.37-0.51-1.91-0.93c-0.54-0.42-0.97-0.96-1.3-1.61
		c-0.32-0.66-0.49-1.43-0.51-2.33H6.46z"/>
	<path class="st0" d="M19.99,4.83h6.4c1.03,0,1.87,0.15,2.52,0.45c0.65,0.3,1.15,0.67,1.5,1.12c0.35,0.45,0.59,0.93,0.72,1.46
		c0.13,0.53,0.19,1.01,0.19,1.46c0,0.45-0.06,0.93-0.19,1.45c-0.13,0.52-0.37,1-0.72,1.45c-0.35,0.45-0.85,0.82-1.5,1.11
		c-0.65,0.29-1.49,0.44-2.52,0.44h-3.86v5.56h-2.54V4.83z M22.53,11.69h3.72c0.28,0,0.58-0.04,0.87-0.12
		c0.3-0.08,0.57-0.21,0.82-0.4c0.25-0.18,0.45-0.43,0.61-0.73c0.16-0.3,0.23-0.69,0.23-1.15c0-0.47-0.07-0.87-0.2-1.18
		c-0.14-0.31-0.32-0.56-0.55-0.74C27.8,7.19,27.54,7.07,27.24,7c-0.3-0.07-0.62-0.1-0.95-0.1h-3.76V11.69z"/>
	<path class="st0" d="M41.74,4.48c1.08,0,2.05,0.2,2.91,0.61c0.86,0.41,1.59,0.95,2.18,1.64c0.6,0.69,1.05,1.5,1.37,2.42
		c0.32,0.92,0.48,1.9,0.48,2.92c0,1.04-0.16,2.03-0.48,2.94c-0.32,0.92-0.78,1.73-1.37,2.42c-0.6,0.69-1.32,1.24-2.18,1.63
		c-0.86,0.4-1.83,0.6-2.91,0.6s-2.05-0.2-2.91-0.6c-0.86-0.4-1.59-0.94-2.18-1.63c-0.6-0.69-1.05-1.5-1.37-2.42
		c-0.32-0.92-0.48-1.9-0.48-2.94c0-1.03,0.16-2,0.48-2.92c0.32-0.92,0.78-1.73,1.37-2.42c0.6-0.69,1.32-1.24,2.18-1.64
		C39.68,4.69,40.66,4.48,41.74,4.48z M41.74,6.55c-0.77,0-1.44,0.16-2,0.47c-0.56,0.31-1.02,0.73-1.37,1.25
		c-0.35,0.52-0.61,1.11-0.78,1.78c-0.17,0.66-0.25,1.34-0.25,2.03c0,0.69,0.08,1.37,0.25,2.03c0.17,0.66,0.43,1.26,0.78,1.78
		c0.35,0.52,0.81,0.94,1.37,1.25c0.56,0.31,1.23,0.47,2,0.47c0.77,0,1.44-0.16,2-0.47c0.56-0.31,1.02-0.73,1.37-1.25
		c0.35-0.52,0.61-1.11,0.78-1.78c0.17-0.66,0.25-1.34,0.25-2.03c0-0.69-0.08-1.37-0.25-2.03c-0.17-0.66-0.43-1.26-0.78-1.78
		c-0.35-0.52-0.81-0.94-1.37-1.25C43.18,6.71,42.51,6.55,41.74,6.55z"/>
	<path class="st0" d="M53.03,4.83h6.93c1.6,0,2.8,0.34,3.6,1.04c0.8,0.69,1.2,1.65,1.2,2.88c0,0.69-0.1,1.26-0.3,1.72
		c-0.2,0.45-0.44,0.82-0.71,1.1c-0.27,0.28-0.54,0.48-0.8,0.6c-0.26,0.12-0.46,0.2-0.58,0.24v0.04c0.22,0.03,0.45,0.09,0.7,0.2
		c0.25,0.11,0.48,0.28,0.7,0.52c0.22,0.24,0.4,0.55,0.54,0.92c0.14,0.38,0.21,0.85,0.21,1.42c0,0.85,0.06,1.63,0.19,2.33
		c0.13,0.7,0.33,1.2,0.6,1.49h-2.72c-0.19-0.31-0.3-0.66-0.33-1.04c-0.03-0.38-0.05-0.74-0.05-1.1c0-0.66-0.04-1.24-0.12-1.72
		c-0.08-0.48-0.23-0.88-0.45-1.2c-0.22-0.32-0.51-0.55-0.88-0.7c-0.37-0.15-0.85-0.22-1.43-0.22h-3.74v5.97h-2.54V4.83z
		 M55.57,11.43h4.16c0.81,0,1.43-0.19,1.85-0.58c0.42-0.39,0.63-0.96,0.63-1.74c0-0.46-0.07-0.84-0.2-1.13
		c-0.14-0.29-0.32-0.52-0.56-0.68c-0.24-0.16-0.51-0.27-0.81-0.32c-0.3-0.05-0.62-0.08-0.94-0.08h-4.12V11.43z"/>
	<path class="st0" d="M67.61,4.83h11.74v2.19h-4.61v12.31H72.2V7.02h-4.59V4.83z"/>
	<path class="st0" d="M84.74,14.5c0,0.55,0.09,1.03,0.28,1.42c0.19,0.39,0.45,0.71,0.79,0.96c0.34,0.25,0.73,0.43,1.17,0.55
		c0.44,0.11,0.92,0.17,1.43,0.17c0.55,0,1.03-0.06,1.42-0.19c0.39-0.13,0.71-0.3,0.95-0.5c0.24-0.2,0.42-0.44,0.53-0.7
		c0.11-0.26,0.16-0.53,0.16-0.8c0-0.55-0.13-0.96-0.38-1.23c-0.25-0.26-0.53-0.45-0.82-0.56c-0.51-0.19-1.11-0.37-1.8-0.54
		c-0.68-0.17-1.53-0.39-2.53-0.66c-0.62-0.16-1.14-0.38-1.55-0.64c-0.41-0.26-0.74-0.56-0.99-0.88c-0.24-0.33-0.42-0.67-0.52-1.04
		c-0.1-0.37-0.15-0.74-0.15-1.12c0-0.73,0.15-1.36,0.46-1.9c0.3-0.54,0.71-0.98,1.21-1.33c0.5-0.35,1.07-0.61,1.71-0.78
		c0.64-0.17,1.28-0.25,1.93-0.25c0.76,0,1.47,0.1,2.14,0.3c0.67,0.2,1.26,0.49,1.77,0.88c0.51,0.39,0.91,0.88,1.21,1.45
		c0.3,0.58,0.45,1.24,0.45,2h-2.54C91,8.18,90.69,7.52,90.12,7.13c-0.57-0.39-1.29-0.58-2.17-0.58c-0.3,0-0.6,0.03-0.91,0.09
		c-0.31,0.06-0.6,0.16-0.85,0.31c-0.26,0.14-0.47,0.33-0.64,0.58c-0.17,0.24-0.25,0.55-0.25,0.91c0,0.51,0.16,0.92,0.48,1.21
		c0.32,0.29,0.73,0.51,1.25,0.66c0.05,0.01,0.27,0.07,0.64,0.17c0.37,0.1,0.79,0.21,1.25,0.34c0.46,0.12,0.91,0.24,1.35,0.35
		c0.44,0.12,0.75,0.2,0.94,0.25c0.47,0.15,0.89,0.35,1.24,0.61c0.35,0.26,0.65,0.55,0.88,0.88c0.24,0.33,0.41,0.69,0.53,1.07
		c0.11,0.38,0.17,0.76,0.17,1.14c0,0.81-0.17,1.51-0.5,2.08c-0.33,0.58-0.77,1.05-1.31,1.41c-0.54,0.37-1.16,0.63-1.85,0.8
		c-0.69,0.17-1.39,0.25-2.11,0.25c-0.83,0-1.6-0.1-2.34-0.31c-0.73-0.2-1.37-0.51-1.91-0.93c-0.54-0.42-0.97-0.96-1.3-1.61
		c-0.32-0.66-0.49-1.43-0.51-2.33H84.74z"/>
	<path class="st0" d="M98.2,4.83h2.54v5.77h6.6V4.83h2.54v14.5h-2.54v-6.54h-6.6v6.54H98.2V4.83z"/>
	<path class="st0" d="M121.13,4.48c1.08,0,2.05,0.2,2.92,0.61c0.86,0.41,1.59,0.95,2.18,1.64c0.6,0.69,1.05,1.5,1.37,2.42
		c0.32,0.92,0.48,1.9,0.48,2.92c0,1.04-0.16,2.03-0.48,2.94c-0.32,0.92-0.78,1.73-1.37,2.42c-0.6,0.69-1.32,1.24-2.18,1.63
		c-0.86,0.4-1.83,0.6-2.92,0.6c-1.08,0-2.06-0.2-2.91-0.6c-0.86-0.4-1.59-0.94-2.18-1.63c-0.6-0.69-1.05-1.5-1.37-2.42
		c-0.32-0.92-0.48-1.9-0.48-2.94c0-1.03,0.16-2,0.48-2.92c0.32-0.92,0.78-1.73,1.37-2.42c0.6-0.69,1.32-1.24,2.18-1.64
		C119.08,4.69,120.05,4.48,121.13,4.48z M121.13,6.55c-0.77,0-1.44,0.16-2,0.47c-0.56,0.31-1.02,0.73-1.37,1.25
		c-0.35,0.52-0.61,1.11-0.78,1.78c-0.17,0.66-0.25,1.34-0.25,2.03c0,0.69,0.08,1.37,0.25,2.03c0.17,0.66,0.43,1.26,0.78,1.78
		c0.35,0.52,0.81,0.94,1.37,1.25c0.56,0.31,1.23,0.47,2,0.47c0.77,0,1.44-0.16,2-0.47c0.56-0.31,1.02-0.73,1.37-1.25
		c0.35-0.52,0.61-1.11,0.78-1.78c0.17-0.66,0.25-1.34,0.25-2.03c0-0.69-0.09-1.37-0.25-2.03c-0.17-0.66-0.43-1.26-0.78-1.78
		c-0.35-0.52-0.81-0.94-1.37-1.25C122.57,6.71,121.9,6.55,121.13,6.55z"/>
	<path class="st0" d="M131,4.83h2.58l2.62,11.09h0.04l2.92-11.09h2.6l2.84,11.09h0.04l2.7-11.09h2.58l-4,14.5h-2.58l-2.9-11.09
		h-0.04l-2.97,11.09h-2.62L131,4.83z"/>
	<path class="st0" d="M153.63,4.83h6.93c1.6,0,2.8,0.34,3.59,1.04c0.8,0.69,1.2,1.65,1.2,2.88c0,0.69-0.1,1.26-0.3,1.72
		c-0.2,0.45-0.44,0.82-0.71,1.1c-0.27,0.28-0.54,0.48-0.8,0.6c-0.26,0.12-0.46,0.2-0.58,0.24v0.04c0.22,0.03,0.45,0.09,0.7,0.2
		c0.25,0.11,0.48,0.28,0.7,0.52c0.22,0.24,0.4,0.55,0.54,0.92c0.14,0.38,0.21,0.85,0.21,1.42c0,0.85,0.06,1.63,0.19,2.33
		c0.13,0.7,0.33,1.2,0.6,1.49h-2.72c-0.19-0.31-0.3-0.66-0.34-1.04c-0.03-0.38-0.05-0.74-0.05-1.1c0-0.66-0.04-1.24-0.12-1.72
		c-0.08-0.48-0.23-0.88-0.45-1.2c-0.22-0.32-0.51-0.55-0.88-0.7c-0.37-0.15-0.85-0.22-1.43-0.22h-3.74v5.97h-2.54V4.83z
		 M156.17,11.43h4.16c0.81,0,1.43-0.19,1.85-0.58c0.42-0.39,0.63-0.96,0.63-1.74c0-0.46-0.07-0.84-0.2-1.13
		c-0.14-0.29-0.32-0.52-0.56-0.68c-0.24-0.16-0.51-0.27-0.81-0.32c-0.31-0.05-0.62-0.08-0.94-0.08h-4.12V11.43z"/>
	<path class="st0" d="M176.13,4.48c1.08,0,2.05,0.2,2.91,0.61c0.86,0.41,1.59,0.95,2.18,1.64c0.6,0.69,1.05,1.5,1.37,2.42
		c0.32,0.92,0.48,1.9,0.48,2.92c0,1.04-0.16,2.03-0.48,2.94c-0.32,0.92-0.78,1.73-1.37,2.42c-0.6,0.69-1.32,1.24-2.18,1.63
		c-0.86,0.4-1.83,0.6-2.91,0.6c-1.08,0-2.06-0.2-2.91-0.6c-0.86-0.4-1.59-0.94-2.18-1.63c-0.6-0.69-1.05-1.5-1.37-2.42
		c-0.32-0.92-0.48-1.9-0.48-2.94c0-1.03,0.16-2,0.48-2.92c0.32-0.92,0.78-1.73,1.37-2.42c0.6-0.69,1.32-1.24,2.18-1.64
		C174.08,4.69,175.05,4.48,176.13,4.48z M176.13,6.55c-0.77,0-1.44,0.16-2,0.47c-0.56,0.31-1.02,0.73-1.37,1.25
		c-0.35,0.52-0.61,1.11-0.78,1.78c-0.17,0.66-0.25,1.34-0.25,2.03c0,0.69,0.08,1.37,0.25,2.03c0.17,0.66,0.43,1.26,0.78,1.78
		c0.35,0.52,0.81,0.94,1.37,1.25c0.56,0.31,1.23,0.47,2,0.47s1.44-0.16,2-0.47c0.56-0.31,1.02-0.73,1.37-1.25
		c0.35-0.52,0.61-1.11,0.78-1.78c0.17-0.66,0.25-1.34,0.25-2.03c0-0.69-0.09-1.37-0.25-2.03c-0.17-0.66-0.43-1.26-0.78-1.78
		c-0.35-0.52-0.81-0.94-1.37-1.25C177.57,6.71,176.9,6.55,176.13,6.55z"/>
	<path class="st0" d="M193.6,4.48c1.08,0,2.05,0.2,2.92,0.61c0.86,0.41,1.59,0.95,2.18,1.64c0.6,0.69,1.05,1.5,1.37,2.42
		c0.32,0.92,0.48,1.9,0.48,2.92c0,1.04-0.16,2.03-0.48,2.94c-0.32,0.92-0.77,1.73-1.37,2.42c-0.6,0.69-1.32,1.24-2.18,1.63
		c-0.86,0.4-1.83,0.6-2.92,0.6c-1.08,0-2.06-0.2-2.91-0.6c-0.86-0.4-1.59-0.94-2.18-1.63c-0.6-0.69-1.05-1.5-1.37-2.42
		c-0.32-0.92-0.48-1.9-0.48-2.94c0-1.03,0.16-2,0.48-2.92c0.32-0.92,0.78-1.73,1.37-2.42c0.6-0.69,1.32-1.24,2.18-1.64
		C191.54,4.69,192.51,4.48,193.6,4.48z M193.6,6.55c-0.77,0-1.44,0.16-2,0.47c-0.56,0.31-1.02,0.73-1.37,1.25
		c-0.35,0.52-0.61,1.11-0.78,1.78c-0.17,0.66-0.25,1.34-0.25,2.03c0,0.69,0.08,1.37,0.25,2.03c0.17,0.66,0.43,1.26,0.78,1.78
		c0.35,0.52,0.81,0.94,1.37,1.25c0.56,0.31,1.23,0.47,2,0.47s1.44-0.16,2-0.47c0.56-0.31,1.02-0.73,1.37-1.25
		c0.35-0.52,0.61-1.11,0.78-1.78c0.17-0.66,0.25-1.34,0.25-2.03c0-0.69-0.09-1.37-0.25-2.03c-0.17-0.66-0.43-1.26-0.78-1.78
		c-0.35-0.52-0.81-0.94-1.37-1.25C195.04,6.71,194.37,6.55,193.6,6.55z"/>
	<path class="st0" d="M204.85,4.83h3.58l4,11.35h0.04l3.9-11.35h3.53v14.5h-2.42V8.14h-0.04l-4.02,11.19h-2.09l-4.02-11.19h-0.04
		v11.19h-2.42V4.83z"/>
</g>
</svg>
