<svg width="64" height="64" viewBox="0 0 64 64" fill="none" xmlns="http://www.w3.org/2000/svg">
<g clip-path="url(#clip0_35_15)">
<path d="M30.1069 30.5599C30.3548 30.8099 30.6497 31.0083 30.9747 31.1436C31.2996 31.279 31.6482 31.3487 32.0002 31.3487C32.3523 31.3487 32.7008 31.279 33.0258 31.1436C33.3507 31.0083 33.6457 30.8099 33.8936 30.5599L41.8936 22.5599C42.1492 22.3113 42.3534 22.0147 42.4944 21.6872C42.6354 21.3597 42.7106 21.0075 42.7155 20.651C42.7205 20.2944 42.6551 19.9403 42.5233 19.609C42.3914 19.2777 42.1955 18.9756 41.9469 18.7199C41.6982 18.4643 41.4017 18.2601 41.0742 18.1191C40.7466 17.9781 40.3945 17.9029 40.0379 17.898C39.6814 17.893 39.3273 17.9583 38.996 18.0902C38.6646 18.2221 38.3625 18.418 38.1069 18.6666L32.0002 24.9066L25.8936 18.6666C25.3773 18.1644 24.6826 17.888 23.9625 17.898C23.2424 17.908 22.5557 18.2036 22.0536 18.7199C21.5514 19.2362 21.2749 19.9308 21.2849 20.651C21.2949 21.3711 21.5906 22.0578 22.1069 22.5599L30.1069 30.5599ZM38.1069 33.4399L32.0002 39.5733L25.8936 33.4399C25.3773 32.9378 24.6826 32.6613 23.9625 32.6713C23.2424 32.6813 22.5557 32.977 22.0536 33.4933C21.5514 34.0095 21.2749 34.7042 21.2849 35.4243C21.2949 36.1444 21.5906 36.8311 22.1069 37.3333L30.1069 45.3333C30.3548 45.5832 30.6497 45.7816 30.9747 45.917C31.2996 46.0524 31.6482 46.1221 32.0002 46.1221C32.3523 46.1221 32.7008 46.0524 33.0258 45.917C33.3507 45.7816 33.6457 45.5832 33.8936 45.3333L41.8936 37.3333C42.3957 36.8311 42.6778 36.1501 42.6778 35.4399C42.6778 34.7298 42.3957 34.0487 41.8936 33.5466C41.3914 33.0444 40.7104 32.7623 40.0002 32.7623C39.2901 32.7623 38.609 33.0444 38.1069 33.5466V33.4399Z" fill="black"/>
</g>
<defs>
<clipPath id="clip0_35_15">
<rect width="64" height="64" fill="white"/>
</clipPath>
</defs>
</svg>
