<svg width="449" height="291" viewBox="0 0 449 291" fill="none" xmlns="http://www.w3.org/2000/svg">
<path d="M16.5725 16.9991C11.621 13.7128 13.9476 6 19.8904 6H429.11C435.052 6 437.379 13.7128 432.427 16.9991L227.818 152.798C225.807 154.132 223.193 154.132 221.182 152.798L16.5725 16.9991Z" fill="#05D9C5"/>
<path d="M16.5725 16.9991C11.621 13.7128 13.9476 6 19.8904 6H429.11C435.052 6 437.379 13.7128 432.427 16.9991L227.818 152.798C225.807 154.132 223.193 154.132 221.182 152.798L16.5725 16.9991Z" fill="#05D9C5"/>
<path d="M427.536 7.12817C432.869 3.9783 439.605 7.82269 439.605 14.0164V282.998C439.605 287.417 436.023 290.998 431.605 290.998H346.59C342.171 290.998 338.59 287.417 338.59 282.998V247.398C338.59 242.98 342.171 239.398 346.59 239.398H381.21C382.314 239.398 383.21 238.503 383.21 237.398V99.4675C383.21 97.8994 381.487 96.9412 380.155 97.7682L225.302 193.888L70.4501 97.7682C69.1178 96.9412 67.3954 97.8994 67.3954 99.4675V237.399C67.3954 238.503 68.2908 239.398 69.3953 239.399L104.016 239.4C108.434 239.4 112.015 242.982 112.015 247.4V283C112.015 287.418 108.434 291 104.015 291H19C14.5817 291 11 287.418 11 283V14.0164C11 7.82269 17.7355 3.97831 23.0685 7.12818L225.302 126.577L427.536 7.12817Z" fill="#1E9BFF"/>
<path d="M427.536 7.12817C432.869 3.9783 439.605 7.82269 439.605 14.0164V282.998C439.605 287.417 436.023 290.998 431.605 290.998H346.59C342.171 290.998 338.59 287.417 338.59 282.998V247.398C338.59 242.98 342.171 239.398 346.59 239.398H381.21C382.314 239.398 383.21 238.503 383.21 237.398V99.4675C383.21 97.8994 381.487 96.9412 380.155 97.7682L225.302 193.888L70.4501 97.7682C69.1178 96.9412 67.3954 97.8994 67.3954 99.4675V237.399C67.3954 238.503 68.2908 239.398 69.3953 239.399L104.016 239.4C108.434 239.4 112.015 242.982 112.015 247.4V283C112.015 287.418 108.434 291 104.015 291H19C14.5817 291 11 287.418 11 283V14.0164C11 7.82269 17.7355 3.97831 23.0685 7.12818L225.302 126.577L427.536 7.12817Z" fill="#1E9BFF"/>
</svg>
