<svg width="30" height="32" viewBox="0 0 30 32" fill="none" xmlns="http://www.w3.org/2000/svg">
<g clip-path="url(#clip0_50_6760)">
<path d="M6.01959e-06 8.33058C0.00158311 7.97736 0.0933332 7.63076 0.266115 7.32521C0.438897 7.01967 0.686689 6.76587 0.984825 6.58908L11.8645 0.147728C12.0318 0.0478435 12.2226 -0.00318735 12.4162 0.000154179C12.6097 0.00349571 12.7987 0.0610847 12.9627 0.166688C13.1266 0.272292 13.2593 0.421873 13.3463 0.599258C13.4333 0.776642 13.4714 0.975073 13.4563 1.17304L12.8642 9.36459C12.7777 10.5706 12.2732 11.7049 11.4421 12.5626C10.611 13.4202 9.508 13.9445 8.33273 14.0405L1.14826 14.6305C1.0019 14.6427 0.854642 14.6237 0.715815 14.5746C0.576986 14.5256 0.4496 14.4475 0.341716 14.3453C0.233854 14.2432 0.147793 14.1194 0.0889769 13.9815C0.0301602 13.8436 -0.000131578 13.6947 6.01959e-06 13.5442V8.33058ZM29.7143 8.33058C29.7128 7.97736 29.6209 7.63076 29.4481 7.32521C29.2754 7.01967 29.0277 6.76587 28.7295 6.58908L17.8519 0.147728C17.6846 0.0478435 17.4938 -0.00318735 17.3003 0.000154179C17.1067 0.00349571 16.9177 0.0610847 16.7537 0.166688C16.5898 0.272292 16.4571 0.421873 16.3701 0.599258C16.2831 0.776642 16.245 0.975073 16.2601 1.17304L16.8501 9.36459C16.9371 10.5707 17.442 11.7052 18.2735 12.5628C19.105 13.4204 20.2082 13.9445 21.3837 14.0405L28.566 14.6305C28.7125 14.6428 28.86 14.6238 28.999 14.5747C29.1378 14.5255 29.2654 14.4473 29.3734 14.345C29.4812 14.2427 29.5674 14.1185 29.626 13.9802C29.6848 13.842 29.7147 13.6928 29.7143 13.542V8.33058ZM6.01959e-06 23.5688C0.00179536 23.9218 0.0936395 24.2684 0.266401 24.5738C0.43916 24.8795 0.686831 25.1333 0.984825 25.3103L11.8645 31.7516C12.0318 31.8515 12.2226 31.9025 12.4162 31.8992C12.6097 31.8957 12.7987 31.8383 12.9627 31.7327C13.1266 31.6269 13.2593 31.4773 13.3463 31.2999C13.4333 31.1225 13.4714 30.9242 13.4563 30.7263L12.8642 22.5347C12.7777 21.3287 12.2732 20.1943 11.4421 19.3367C10.611 18.479 9.508 17.9548 8.33273 17.8587L1.14826 17.2666C1.00176 17.2543 0.854345 17.2733 0.715374 17.3224C0.576402 17.3715 0.448894 17.4497 0.34094 17.5521C0.232988 17.6544 0.14694 17.7786 0.0882514 17.9169C0.0295627 18.0551 -0.000489089 18.2043 6.01959e-06 18.3551V23.5688ZM29.7143 18.3638C29.7147 18.213 29.6848 18.0638 29.626 17.9256C29.5674 17.7873 29.4812 17.6631 29.3734 17.5608C29.2654 17.4585 29.1378 17.3802 28.999 17.3311C28.86 17.282 28.7125 17.263 28.566 17.2754L21.3837 17.8675C20.2082 17.9634 19.105 18.4876 18.2735 19.3452C17.442 20.2028 16.9371 21.3372 16.8501 22.5435L16.2601 30.735C16.245 30.9329 16.2831 31.1314 16.3701 31.3086C16.4571 31.486 16.5898 31.6356 16.7537 31.7414C16.9177 31.847 17.1067 31.9044 17.3003 31.9079C17.4938 31.9112 17.6846 31.86 17.8519 31.7603L28.7295 25.319C29.0275 25.142 29.2752 24.8882 29.4479 24.5825C29.6207 24.2771 29.7126 23.9306 29.7143 23.5775V18.3638Z" fill="#EF6820"/>
</g>
<defs>
<clipPath id="clip0_50_6760">
<rect width="29.7143" height="32" fill="white"/>
</clipPath>
</defs>
</svg>
