<svg width="160" height="29" viewBox="0 0 160 29" fill="none" xmlns="http://www.w3.org/2000/svg">
<g filter="url(#filter0_d_614_8041)">
<path d="M22.394 10.984C22.826 10.968 23.186 11.104 23.474 11.392C23.762 11.68 23.914 12.024 23.93 12.424C23.946 12.84 23.81 13.2 23.522 13.504C23.25 13.808 22.898 13.96 22.466 13.96C22.018 13.976 21.642 13.84 21.338 13.552C21.05 13.248 20.906 12.888 20.906 12.472C20.906 12.136 21.01 11.832 21.218 11.56C21.426 11.272 21.698 11.096 22.034 11.032C22.114 11 22.234 10.984 22.394 10.984ZM4.92197 22.024L13.178 2.824L14.786 2.8L23.306 22.024L20.234 22.072L13.994 7.984L7.94597 22.072L4.92197 22.024ZM33.7246 22.12V21.904V21.304V19.096V12.472V5.824C33.7406 4.976 33.7486 4.248 33.7486 3.64V3.04V2.824H36.6286V3.04V3.64C36.6286 4.248 36.6206 4.976 36.6046 5.824V12.472V19.12V21.304V21.904V22.12H33.7246ZM71.4164 22.336H71.3924H71.3444H71.1764C71.0484 22.352 70.8324 22.36 70.5284 22.36H68.6324C67.3364 22.36 66.4164 22.344 65.8724 22.312C62.5764 21.992 60.1524 20.68 58.6004 18.376C56.5684 15.368 56.1924 12.304 57.4724 9.184C58.2244 7.296 59.2404 5.816 60.5204 4.744C61.9924 3.528 63.7924 2.84 65.9204 2.68C66.4964 2.648 67.3524 2.632 68.4884 2.632H71.0564H71.1524H71.1764H71.2004V5.416H71.1764H71.1524H71.0564H68.5124C67.3444 5.416 66.5524 5.432 66.1364 5.464C64.6484 5.576 63.4164 6.016 62.4404 6.784C61.4644 7.552 60.6644 8.696 60.0404 10.216C59.1284 12.44 59.4164 14.64 60.9044 16.816C61.4324 17.568 62.0484 18.144 62.7524 18.544C63.6644 19.088 64.7924 19.416 66.1364 19.528C66.5204 19.56 67.3524 19.576 68.6324 19.576H70.5044C70.8084 19.576 71.0244 19.568 71.1524 19.552H71.3204H71.3684H71.3924L71.4164 22.336ZM97.7924 10.984C98.2244 10.968 98.5844 11.104 98.8724 11.392C99.1604 11.68 99.3124 12.024 99.3284 12.424C99.3444 12.84 99.2084 13.2 98.9204 13.504C98.6484 13.808 98.2964 13.96 97.8644 13.96C97.4164 13.976 97.0404 13.84 96.7364 13.552C96.4484 13.248 96.3044 12.888 96.3044 12.472C96.3044 12.136 96.4084 11.832 96.6164 11.56C96.8244 11.272 97.0964 11.096 97.4324 11.032C97.5124 11 97.6324 10.984 97.7924 10.984ZM80.3204 22.024L88.5764 2.824L90.1844 2.8L98.7044 22.024L95.6324 22.072L89.3924 7.984L83.3444 22.072L80.3204 22.024ZM108.883 22V2.8H111.787V19.12H118.075V22.024L108.883 22ZM127.656 22V2.8H130.56V19.12H136.848V22.024L127.656 22ZM152.869 7.72L151.837 6.424C150.861 5.224 149.917 4.992 149.005 5.728C148.701 5.984 148.477 6.248 148.333 6.52C148.189 6.776 148.109 7 148.093 7.192C148.093 7.368 148.149 7.584 148.261 7.84C148.389 8.08 148.485 8.248 148.549 8.344C148.629 8.44 148.749 8.584 148.909 8.776L153.829 15.208C154.501 16.088 154.821 17.16 154.789 18.424C154.741 19.592 154.109 20.624 152.893 21.52C151.741 22.368 150.533 22.72 149.269 22.576C148.021 22.448 146.949 21.856 146.053 20.8L144.877 19.264L147.205 17.584C147.637 18.16 147.933 18.536 148.093 18.712C148.493 19.224 148.981 19.536 149.557 19.648C150.133 19.744 150.605 19.632 150.973 19.312C151.213 19.136 151.405 18.928 151.549 18.688C151.693 18.432 151.757 18.12 151.741 17.752C151.741 17.368 151.605 16.992 151.333 16.624C149.045 13.712 147.637 11.912 147.109 11.224C146.885 10.936 146.701 10.696 146.557 10.504L146.389 10.288L146.341 10.24C145.445 9.104 145.109 7.864 145.333 6.52C145.557 5.288 146.221 4.272 147.325 3.472C148.509 2.672 149.677 2.352 150.829 2.512C151.485 2.608 152.037 2.776 152.485 3.016C152.933 3.256 153.381 3.664 153.829 4.24L155.173 6.016L152.869 7.72Z" fill="#9234EA"/>
</g>
<defs>
<filter id="filter0_d_614_8041" x="0.921997" y="0.271973" width="158.251" height="28.52" filterUnits="userSpaceOnUse" color-interpolation-filters="sRGB">
<feFlood flood-opacity="0" result="BackgroundImageFix"/>
<feColorMatrix in="SourceAlpha" type="matrix" values="0 0 0 0 0 0 0 0 0 0 0 0 0 0 0 0 0 0 127 0" result="hardAlpha"/>
<feOffset dy="2"/>
<feGaussianBlur stdDeviation="2"/>
<feComposite in2="hardAlpha" operator="out"/>
<feColorMatrix type="matrix" values="0 0 0 0 0 0 0 0 0 0 0 0 0 0 0 0 0 0 0.12 0"/>
<feBlend mode="normal" in2="BackgroundImageFix" result="effect1_dropShadow_614_8041"/>
<feBlend mode="normal" in="SourceGraphic" in2="effect1_dropShadow_614_8041" result="shape"/>
</filter>
</defs>
</svg>
