<svg width="512" height="512" viewBox="0 0 512 512" fill="none" xmlns="http://www.w3.org/2000/svg">
<g clip-path="url(#clip0_211_84)">
<path d="M497.697 242.93C510.672 230.289 515.251 211.736 509.651 194.52C504.061 177.297 489.452 164.98 471.525 162.375L360.838 146.292C355.219 145.472 350.364 141.945 347.852 136.857L298.351 36.549C290.335 20.314 274.107 10.229 255.999 10.229C237.891 10.229 221.663 20.314 213.647 36.549C213.647 36.55 164.146 136.856 164.146 136.856C161.634 141.946 156.779 145.473 151.169 146.291L40.4751 162.374C22.5471 164.98 7.93814 177.297 2.35114 194.511C-3.25186 211.736 1.32714 230.29 14.2981 242.927L94.3961 321.011C98.4591 324.97 100.313 330.673 99.3561 336.26L80.4441 446.514C77.3881 464.364 84.5871 482.062 99.2321 492.7C113.88 503.343 132.94 504.722 148.976 496.299L247.978 444.247C253 441.608 258.997 441.609 264.014 444.244L363.024 496.299C379.06 504.723 398.12 503.343 412.768 492.7C427.412 482.061 434.612 464.364 431.556 446.514L412.643 336.265C411.686 330.673 413.539 324.97 417.605 321.008L497.697 242.93ZM383.073 341.328L401.988 451.586C403.119 458.19 400.558 464.49 395.136 468.429C392.126 470.616 388.639 471.771 385.05 471.771C383.477 471.771 380.463 471.572 376.976 469.74L277.975 417.69C271.217 414.141 263.622 412.268 256.001 412.268C248.376 412.268 240.776 414.143 234.026 417.69L135.015 469.746C128.214 473.319 121.408 471.731 116.867 468.431C111.443 464.491 108.882 458.191 110.014 451.577L128.925 341.333C131.549 325.999 126.467 310.375 115.334 299.526L35.2401 221.446C30.4341 216.763 28.8061 210.166 30.8801 203.792C32.9531 197.406 38.1511 193.028 44.7911 192.063L155.481 175.98C170.879 173.734 184.168 164.074 191.048 150.135L240.548 49.831C243.516 43.819 249.293 40.23 256 40.23C262.707 40.23 268.484 43.819 271.452 49.831L320.951 150.134C327.833 164.075 341.125 173.735 356.508 175.979C381.047 179.542 428.046 186.366 467.207 192.063C473.85 193.028 479.048 197.409 481.117 203.782C483.195 210.169 481.565 216.764 476.763 221.443L396.664 299.527C385.531 310.375 380.45 326.003 383.073 341.328Z" fill="#F15050"/>
</g>
<defs>
<clipPath id="clip0_211_84">
<rect width="512" height="512" fill="white"/>
</clipPath>
</defs>
</svg>
