<svg width="626" height="393" viewBox="0 0 626 393" fill="none" xmlns="http://www.w3.org/2000/svg">
<path d="M462.573 174.031C462.573 174.031 441.07 156.951 441.07 117.706C441.07 78.4617 460.588 67.407 468.17 67.407C475.751 67.407 488.295 72.3815 488.295 97.0062C488.295 121.631 462.573 174.031 462.573 174.031V174.031ZM593.635 159.411C558.319 185.556 528.049 185.943 528.049 185.943C528.049 185.943 551.013 129.95 552.557 100.047C555.893 35.2375 512.197 3.12301 470.32 3.12301C428.444 3.12301 376.89 37.0614 376.89 118.536C376.89 205.344 435.528 233.34 435.528 233.34C435.528 233.34 387.146 326.837 361.645 326.837C342.347 326.837 340.555 187.076 339.893 166.956C339.287 148.854 320.926 136.859 310.284 136.887C296.859 136.887 285.252 141.972 278.525 156.398C265.072 185.141 202.601 328.384 161.138 328.384C125.906 328.384 200.424 151.037 200.424 86.062C200.424 50.1338 190.085 0 132.164 0C59.2725 0 0 157.532 0 157.532L59.7411 181.134C92.8234 106.265 126.347 59.3094 132.798 65.7765C153.722 86.7807 86.7307 233.285 86.7307 312.852C86.7307 328.274 98.1717 393 161.772 393C231.438 393 283.322 288.78 283.322 288.78C283.322 288.78 283.929 391.922 361.424 391.922C438.92 391.922 498.275 251.746 498.275 251.746C505.823 252.163 513.388 252.163 520.936 251.746C587.542 245.86 620.597 215.266 626 209.793L593.635 159.411Z" fill="#4B55CE"/>
<path d="M462.573 174.031C462.573 174.031 441.07 156.951 441.07 117.706C441.07 78.4617 460.588 67.407 468.17 67.407C475.751 67.407 488.295 72.3815 488.295 97.0062C488.295 121.631 462.573 174.031 462.573 174.031V174.031ZM593.635 159.411C558.319 185.556 528.049 185.943 528.049 185.943C528.049 185.943 551.013 129.95 552.557 100.047C555.893 35.2375 512.197 3.12301 470.32 3.12301C428.444 3.12301 376.89 37.0614 376.89 118.536C376.89 205.344 435.528 233.34 435.528 233.34C435.528 233.34 387.146 326.837 361.645 326.837C342.347 326.837 340.555 187.076 339.893 166.956C339.287 148.854 320.926 136.859 310.284 136.887C296.859 136.887 285.252 141.972 278.525 156.398C265.072 185.141 202.601 328.384 161.138 328.384C125.906 328.384 200.424 151.037 200.424 86.062C200.424 50.1338 190.085 0 132.164 0C59.2725 0 0 157.532 0 157.532L59.7411 181.134C92.8234 106.265 126.347 59.3094 132.798 65.7765C153.722 86.7807 86.7307 233.285 86.7307 312.852C86.7307 328.274 98.1717 393 161.772 393C231.438 393 283.322 288.78 283.322 288.78C283.322 288.78 283.929 391.922 361.424 391.922C438.92 391.922 498.275 251.746 498.275 251.746C505.823 252.163 513.388 252.163 520.936 251.746C587.542 245.86 620.597 215.266 626 209.793L593.635 159.411Z" fill="#4B55CE"/>
<path d="M462.573 174.031C462.573 174.031 441.07 156.951 441.07 117.706C441.07 78.4617 460.588 67.407 468.17 67.407C475.751 67.407 488.295 72.3815 488.295 97.0062C488.295 121.631 462.573 174.031 462.573 174.031V174.031ZM593.635 159.411C558.319 185.556 528.049 185.943 528.049 185.943C528.049 185.943 551.013 129.95 552.557 100.047C555.893 35.2375 512.197 3.12301 470.32 3.12301C428.444 3.12301 376.89 37.0614 376.89 118.536C376.89 205.344 435.528 233.34 435.528 233.34C435.528 233.34 387.146 326.837 361.645 326.837C342.347 326.837 340.555 187.076 339.893 166.956C339.287 148.854 320.926 136.859 310.284 136.887C296.859 136.887 285.252 141.972 278.525 156.398C265.072 185.141 202.601 328.384 161.138 328.384C125.906 328.384 200.424 151.037 200.424 86.062C200.424 50.1338 190.085 0 132.164 0C59.2725 0 0 157.532 0 157.532L59.7411 181.134C92.8234 106.265 126.347 59.3094 132.798 65.7765C153.722 86.7807 86.7307 233.285 86.7307 312.852C86.7307 328.274 98.1717 393 161.772 393C231.438 393 283.322 288.78 283.322 288.78C283.322 288.78 283.929 391.922 361.424 391.922C438.92 391.922 498.275 251.746 498.275 251.746C505.823 252.163 513.388 252.163 520.936 251.746C587.542 245.86 620.597 215.266 626 209.793L593.635 159.411Z" fill="#4B55CE"/>
</svg>
