<svg width="97" height="33" viewBox="0 0 97 33" fill="none" xmlns="http://www.w3.org/2000/svg">
<path d="M24.8592 13.0518H17.6C16.1826 13.053 14.8237 13.6166 13.8215 14.6188C12.8193 15.6211 12.2556 16.98 12.2544 18.3974V22.9637C12.2533 23.0571 12.2708 23.1497 12.3058 23.2362C12.3408 23.3228 12.3926 23.4015 12.4582 23.4679C12.5238 23.5342 12.602 23.5869 12.6881 23.6229C12.7742 23.6588 12.8666 23.6774 12.96 23.6774H14.8432C17.54 23.6776 20.1386 22.6649 22.1241 20.8398C24.1095 19.0146 25.3369 16.5103 25.5632 13.8229C25.5718 13.7252 25.5601 13.6266 25.5286 13.5336C25.4972 13.4406 25.4468 13.3552 25.3806 13.2827C25.3144 13.2102 25.2339 13.1522 25.1442 13.1125C25.0544 13.0727 24.9573 13.052 24.8592 13.0518Z" fill="#FCFCFC"/>
<path d="M25.5633 10.6518C25.3381 7.964 24.111 5.45903 22.1253 3.63369C20.1396 1.80835 17.5404 0.795977 14.8433 0.797365H12.9601C12.7729 0.797365 12.5934 0.871704 12.4611 1.00403C12.3288 1.13636 12.2545 1.31583 12.2545 1.50297V6.07736C12.2562 7.49444 12.8199 8.85296 13.8221 9.85483C14.8243 10.8567 16.183 11.4201 17.6001 11.4214H24.8561C24.9544 11.4215 25.0516 11.4012 25.1416 11.3617C25.2316 11.3223 25.3125 11.2645 25.379 11.1922C25.4455 11.1198 25.4962 11.0344 25.5279 10.9413C25.5597 10.8483 25.5717 10.7497 25.5633 10.6518Z" fill="#FCFCFC"/>
<path d="M5.28 0.797363H0.705601C0.518594 0.797786 0.339366 0.872263 0.207131 1.0045C0.0748972 1.13673 0.000422616 1.31596 0 1.50296V6.07736C-6.34365e-08 7.4961 0.563482 8.85675 1.56653 9.8601C2.56958 10.8635 3.93006 11.4273 5.3488 11.4278H9.92C10.0128 11.4278 10.1047 11.4095 10.1904 11.3739C10.2761 11.3383 10.354 11.2862 10.4195 11.2205C10.485 11.1548 10.537 11.0769 10.5723 10.9911C10.6077 10.9053 10.6258 10.8134 10.6256 10.7206V6.14616C10.6256 4.72813 10.0625 3.36812 9.0601 2.36512C8.0577 1.36212 6.69804 0.798212 5.28 0.797363Z" fill="#FCFCFC"/>
<path d="M5.3104 13.0518H5.28C3.87966 13.0518 2.53667 13.608 1.54648 14.5982C0.556285 15.5884 0 16.9314 0 18.3318V27.4518C0.00456465 28.8623 0.564627 30.2142 1.55888 31.2148C2.55313 32.2153 3.90153 32.7839 5.312 32.7974H9.92C10.0127 32.7974 10.1044 32.7791 10.19 32.7436C10.2756 32.7082 10.3534 32.6562 10.4189 32.5907C10.4845 32.5252 10.5364 32.4474 10.5719 32.3618C10.6074 32.2762 10.6256 32.1844 10.6256 32.0918V18.3974C10.6214 16.9861 10.0611 15.6335 9.06604 14.6328C8.07101 13.632 6.72156 13.064 5.3104 13.0518Z" fill="#FCFCFC"/>
<path d="M43.5169 11.0198C42.6411 10.207 41.3702 9.80109 39.7041 9.80216H34.8993V24.6054H36.8433V18.495H39.6993C41.423 18.495 42.7083 18.0859 43.5553 17.2678C44.4022 16.4496 44.8257 15.4064 44.8257 14.1382C44.8289 12.871 44.3926 11.8315 43.5169 11.0198ZM42.0865 16.2214C41.5617 16.712 40.766 16.9574 39.6993 16.9574H36.8417V11.3574H39.6993C41.8059 11.3574 42.8598 12.2902 42.8609 14.1558C42.8641 15.0411 42.606 15.7296 42.0865 16.2214Z" fill="#FCFCFC"/>
<path d="M55.5105 19.5174C55.5105 20.6907 55.2225 21.5846 54.6465 22.199C54.0705 22.8134 53.2833 23.1232 52.2849 23.1286C51.2876 23.1286 50.5009 22.8187 49.9249 22.199C49.3489 21.5792 49.0604 20.6854 49.0593 19.5174V12.8773H47.1393V19.8374C47.1393 21.4182 47.5734 22.639 48.4417 23.4998C48.8669 23.9245 49.3742 24.2582 49.9326 24.4804C50.491 24.7027 51.0889 24.8089 51.6897 24.7925C53.455 24.7925 54.7292 24.0992 55.5121 22.7125V24.6053H57.4593V12.8773H55.5105V19.5174Z" fill="#FCFCFC"/>
<path d="M59.9537 14.4581H65.6145L59.9537 23.0245V24.6053H67.8145V23.0245H62.1553L67.8145 14.4581V12.8773H59.9537V14.4581Z" fill="#FCFCFC"/>
<path d="M70.0017 14.4581H75.6625L70.0017 23.0245V24.6053H77.8625V23.0245H72.2017L77.8625 14.4581V12.8773H70.0017V14.4581Z" fill="#FCFCFC"/>
<path d="M82.3057 8.79736H80.3617V24.6054H82.3057V8.79736Z" fill="#FCFCFC"/>
<path d="M96.0194 18.2614C96.0194 16.6368 95.5031 15.3035 94.4706 14.2614C93.438 13.2192 92.0711 12.696 90.3697 12.6918C88.6631 12.6918 87.2764 13.2438 86.2097 14.3478C85.143 15.4518 84.6097 16.9147 84.6097 18.7366C84.6097 20.5606 85.1366 22.0278 86.1905 23.1382C87.2444 24.2486 88.6124 24.8016 90.2945 24.7974C91.662 24.7974 92.798 24.4624 93.7026 23.7926C94.5812 23.1579 95.2472 22.2721 95.613 21.2518H93.5202C93.2671 21.8311 92.8471 22.3219 92.3138 22.6614C91.7075 23.0334 91.0055 23.2197 90.2945 23.1974C89.2407 23.1974 88.3756 22.8587 87.6993 22.1814C87.0231 21.504 86.6561 20.5819 86.5985 19.415H95.9346C95.9929 19.0332 96.0212 18.6475 96.0194 18.2614ZM86.6209 18.0038C86.6913 16.8507 87.0684 15.944 87.7521 15.2838C88.4606 14.6407 89.3842 14.2861 90.341 14.29C91.2978 14.2938 92.2185 14.6558 92.9218 15.3046C93.6194 15.9819 93.9756 16.8827 93.9906 18.007L86.6209 18.0038Z" fill="#FCFCFC"/>
</svg>
