<?xml version="1.0" encoding="utf-8"?>
<!-- Generator: Adobe Illustrator 15.0.0, SVG Export Plug-In . SVG Version: 6.00 Build 0)  -->
<!DOCTYPE svg PUBLIC "-//W3C//DTD SVG 1.1//EN" "http://www.w3.org/Graphics/SVG/1.1/DTD/svg11.dtd" [
	<!ENTITY ns_extend "http://ns.adobe.com/Extensibility/1.0/">
	<!ENTITY ns_ai "http://ns.adobe.com/AdobeIllustrator/10.0/">
	<!ENTITY ns_graphs "http://ns.adobe.com/Graphs/1.0/">
	<!ENTITY ns_vars "http://ns.adobe.com/Variables/1.0/">
	<!ENTITY ns_imrep "http://ns.adobe.com/ImageReplacement/1.0/">
	<!ENTITY ns_sfw "http://ns.adobe.com/SaveForWeb/1.0/">
	<!ENTITY ns_custom "http://ns.adobe.com/GenericCustomNamespace/1.0/">
	<!ENTITY ns_adobe_xpath "http://ns.adobe.com/XPath/1.0/">
]>
<svg version="1.1" id="Ebene_1" xmlns:x="&ns_extend;" xmlns:i="&ns_ai;" xmlns:graph="&ns_graphs;"
	 xmlns="http://www.w3.org/2000/svg" xmlns:xlink="http://www.w3.org/1999/xlink" x="0px" y="0px" width="2000px" height="645px"
	 viewBox="0 0 2000 645" enable-background="new 0 0 2000 645" xml:space="preserve">
<metadata>
	<sfw  xmlns="&ns_sfw;">
		<slices></slices>
		<sliceSourceBounds  height="716.228" width="2000" y="-71.228" x="0" bottomLeftOrigin="true"></sliceSourceBounds>
	</sfw>
</metadata>
<g>
	<defs>
		<rect id="SVGID_1_" width="2000" height="645"/>
	</defs>
	<clipPath id="SVGID_2_">
		<use xlink:href="#SVGID_1_"  overflow="visible"/>
	</clipPath>
	<path clip-path="url(#SVGID_2_)" fill="#FFD64B" d="M633.215,232.861c0.017-20.836,0.063-43.137,0.063-43.137
		s-12.594,42.063-82.887,43.072c-17.497,0.252-52.597,0-70.147,0c-19.665,0-58.459,18.713-58.254,68.509h145.846
		c0,0,9.908-0.026,11.409-0.204c20.314-2.41,53.543-21.49,53.969-66.969c0.004-0.424,0.012-0.844,0.01-1.271l-0.009,0.009V232.861z"
		/>
	<path clip-path="url(#SVGID_2_)" fill="#FFD64B" d="M413.78,12.715c20.836-0.018,43.136-0.063,43.136-0.063
		s-42.062,12.594-43.072,82.886c-0.251,17.497,0,52.598,0,70.148c0,19.664-18.712,58.459-68.508,58.254V78.094
		c0,0,0.026-9.908,0.204-11.409c2.409-20.314,21.49-53.544,66.969-53.969c0.423-0.004,0.843-0.012,1.271-0.01l-0.009,0.009H413.78z"
		/>
	<path clip-path="url(#SVGID_2_)" fill="#FFD64B" d="M528.175,156.186c0-20.877-16.924-37.802-37.802-37.802
		c-20.877,0-37.802,16.925-37.802,37.802s16.925,37.802,37.802,37.802C511.251,193.987,528.175,177.062,528.175,156.186"/>
	<path clip-path="url(#SVGID_2_)" fill="#19A767" d="M633.215,406.72c0.017,20.837,0.063,43.137,0.063,43.137
		s-12.594-42.062-82.887-43.072c-17.497-0.252-52.597,0-70.147,0c-19.665,0-58.459-18.713-58.254-68.509h145.846
		c0,0,9.908,0.026,11.409,0.205c20.314,2.409,53.543,21.489,53.969,66.968c0.004,0.424,0.012,0.844,0.01,1.272l-0.009-0.01V406.72z"
		/>
	<path clip-path="url(#SVGID_2_)" fill="#19A767" d="M413.78,626.866c20.836,0.018,43.136,0.063,43.136,0.063
		s-42.062-12.595-43.072-82.887c-0.251-17.497,0-52.598,0-70.147c0-19.665-18.712-58.459-68.508-58.254v145.846
		c0,0,0.026,9.908,0.204,11.409c2.409,20.313,21.49,53.543,66.969,53.969c0.423,0.004,0.843,0.012,1.271,0.01l-0.009-0.009H413.78z"
		/>
	<path clip-path="url(#SVGID_2_)" fill="#19A767" d="M528.175,483.396c0,20.877-16.924,37.802-37.802,37.802
		c-20.877,0-37.802-16.925-37.802-37.802s16.925-37.802,37.802-37.802C511.251,445.594,528.175,462.519,528.175,483.396"/>
	<path clip-path="url(#SVGID_2_)" fill="#1D2875" d="M19.064,406.72C19.046,427.557,19,449.856,19,449.856
		s12.595-42.062,82.887-43.072c17.497-0.252,52.597,0,70.148,0c19.664,0,58.458-18.713,58.253-68.509H84.443
		c0,0-9.909,0.026-11.409,0.205C52.72,340.89,19.49,359.97,19.065,405.448c-0.004,0.424-0.012,0.844-0.01,1.272l0.009-0.01V406.72z"
		/>
	<path clip-path="url(#SVGID_2_)" fill="#1D2875" d="M238.499,626.866c-20.836,0.018-43.136,0.063-43.136,0.063
		s42.063-12.595,43.072-82.887c0.251-17.497,0-52.598,0-70.147c0-19.665,18.712-58.459,68.508-58.254v145.846
		c0,0-0.026,9.908-0.204,11.409c-2.409,20.313-21.49,53.543-66.969,53.969c-0.423,0.004-0.843,0.012-1.271,0.01l0.009-0.009H238.499
		z"/>
	<path clip-path="url(#SVGID_2_)" fill="#1D2875" d="M124.104,483.396c0,20.877,16.924,37.802,37.802,37.802
		c20.877,0,37.802-16.925,37.802-37.802s-16.925-37.802-37.802-37.802C141.028,445.594,124.104,462.519,124.104,483.396"/>
	<path clip-path="url(#SVGID_2_)" fill="#FD4F57" d="M124.104,156.186c0-20.877,16.924-37.802,37.802-37.802
		c20.877,0,37.802,16.925,37.802,37.802s-16.925,37.802-37.802,37.802C141.028,193.987,124.104,177.062,124.104,156.186"/>
	<path clip-path="url(#SVGID_2_)" fill="#FD4F57" d="M306.739,66.685c-2.41-20.313-21.49-53.543-66.969-53.969
		c-0.424-0.004-0.844-0.012-1.272-0.01l0.01,0.009H238.5c-20.837-0.017-43.136-0.064-43.136-0.064s0.061,0.02,0.158,0.052L19,12.65
		l0.051,177.233C19.02,189.787,19,189.725,19,189.725s0.046,22.297,0.064,43.132v0.014l-0.01-0.01
		c-0.002,0.428,0.007,0.848,0.011,1.271c0.425,45.479,33.654,64.56,53.968,66.97c1.501,0.178,11.41,0.204,11.41,0.204h145.845
		c0.205-49.796-38.589-68.509-58.254-68.509c-17.55,0-52.65,0.251-70.147,0c-6-0.086-11.547-0.491-16.734-1.124V78.805
		l152.157-0.009c0.633,5.189,1.038,10.74,1.124,16.743c0.251,17.497,0,52.597,0,70.147c0,19.665,18.713,58.459,68.509,58.253V78.094
		C306.943,78.094,306.917,68.186,306.739,66.685"/>
</g>
<g>
	<path d="M787.707,156.447h83.252c22.626,0,42.106,4.062,58.45,12.184c16.339,8.122,28.862,19.87,37.565,35.244
		c8.702,15.374,13.053,33.604,13.053,54.679c0,21.275-4.306,39.596-12.908,54.97c-8.607,15.374-21.081,27.122-37.42,35.244
		c-16.344,8.122-35.924,12.184-58.74,12.184h-83.252V156.447z M867.188,318.02c20.11,0,35.099-4.932,44.961-14.794
		c9.863-9.863,14.794-24.751,14.794-44.672c0-19.916-4.931-34.759-14.794-44.526c-9.862-9.763-24.851-14.649-44.961-14.649h-26.107
		V318.02H867.188z"/>
	<path d="M1018.896,360.951V156.447h53.374v204.504H1018.896z"/>
	<path d="M1297.658,245.501v102.396c-10.638,5.031-22.726,8.897-36.26,11.604c-13.538,2.706-27.366,4.061-41.48,4.061
		c-22.241,0-41.531-4.206-57.87-12.618c-16.344-8.412-28.862-20.495-37.565-36.259c-8.702-15.759-13.053-34.469-13.053-56.13
		c0-21.076,4.351-39.545,13.053-55.404c8.703-15.854,21.031-28.038,36.985-36.55c15.954-8.507,34.664-12.763,56.13-12.763
		c14.889,0,28.862,1.935,41.916,5.801c13.053,3.871,23.641,9.188,31.763,15.955l-16.534,37.709
		c-9.478-6.187-18.564-10.633-27.267-13.343c-8.703-2.706-17.985-4.061-27.848-4.061c-18.375,0-32.054,5.126-41.046,15.374
		c-8.992,10.252-13.488,26.012-13.488,47.282c0,21.855,4.687,38.05,14.068,48.588c9.378,10.542,23.736,15.809,43.076,15.809
		c9.282,0,18.466-0.965,27.558-2.901v-38h-35.97v-36.549H1297.658z"/>
	<path d="M1339.716,360.951V156.447h53.374v204.504H1339.716z"/>
	<path d="M1483.592,360.951V199.669h-61.206v-43.222h176.367v43.222h-61.206v161.282H1483.592z"/>
	<path d="M1757.421,360.951l-18.275-42.351h-90.503l-18.275,42.351h-53.664l95.436-204.504h42.351l95.726,204.504H1757.421z
		 M1665.757,278.569h56.274l-28.138-65.557L1665.757,278.569z"/>
	<path d="M1829.646,360.951V156.447h53.374V317.73h87.023v43.221H1829.646z"/>
</g>
<g>
	<defs>
		<rect id="SVGID_3_" width="2000" height="645"/>
	</defs>
	<clipPath id="SVGID_4_">
		<use xlink:href="#SVGID_3_"  overflow="visible"/>
	</clipPath>
	<g clip-path="url(#SVGID_4_)">
		<path d="M787.707,420.929h98.916c22.626,0,40.221,5.757,52.794,17.26c12.568,11.508,18.854,27.512,18.854,48.008
			c0,20.305-6.336,36.26-19,47.862c-12.668,11.604-30.218,17.404-52.649,17.404h-45.542v73.97h-53.374V420.929z M879.371,511.433
			c9.862,0,17.16-2.03,21.901-6.092c4.736-4.061,7.106-10.343,7.106-18.854c0-8.508-2.37-14.84-7.106-19
			c-4.741-4.156-12.039-6.236-21.901-6.236h-38.29v50.183H879.371z"/>
		<path d="M991.336,625.433V420.929h145.328v41.191h-93.404v38.87h87.604v40.9h-87.604v42.352h93.404v41.19H991.336z"/>
		<path d="M1214.836,615.135c-15.374-8.603-27.223-20.785-35.535-36.55c-8.316-15.759-12.473-34.274-12.473-55.549
			c0-21.271,4.156-39.786,12.473-55.55c8.312-15.76,20.161-27.893,35.535-36.404c15.374-8.508,33.503-12.764,54.389-12.764
			s39.016,4.256,54.39,12.764c15.374,8.512,27.167,20.645,35.389,36.404c8.218,15.764,12.328,34.278,12.328,55.55
			c0,21.274-4.16,39.79-12.473,55.549c-8.317,15.765-20.16,27.947-35.534,36.55c-15.374,8.607-33.409,12.908-54.1,12.908
			C1248.339,628.043,1230.21,623.742,1214.836,615.135z M1305.484,570.753c8.702-10.923,13.054-26.832,13.054-47.717
			c0-20.886-4.401-36.74-13.199-47.573c-8.802-10.827-20.84-16.244-36.114-16.244c-15.474,0-27.557,5.366-36.26,16.1
			c-8.702,10.732-13.053,26.642-13.053,47.718c0,21.08,4.351,37.034,13.053,47.862c8.703,10.832,20.786,16.244,36.26,16.244
			C1284.694,587.143,1296.782,581.681,1305.484,570.753z"/>
		<path d="M1410.199,420.929h98.916c22.626,0,40.222,5.757,52.794,17.26c12.568,11.508,18.855,27.512,18.855,48.008
			c0,20.305-6.337,36.26-19,47.862c-12.668,11.604-30.218,17.404-52.649,17.404h-45.542v73.97h-53.374V420.929z M1501.863,511.433
			c9.863,0,17.16-2.03,21.901-6.092c4.736-4.061,7.106-10.343,7.106-18.854c0-8.508-2.37-14.84-7.106-19
			c-4.741-4.156-12.038-6.236-21.901-6.236h-38.29v50.183H1501.863z"/>
		<path d="M1613.828,625.433V420.929h53.374v161.282h87.023v43.222H1613.828z"/>
		<path d="M1787.001,625.433V420.929h145.328v41.191h-93.404v38.87h87.604v40.9h-87.604v42.352h93.404v41.19H1787.001z"/>
	</g>
</g>
<g>
	<defs>
		<rect id="SVGID_5_" width="2000" height="645"/>
	</defs>
	<clipPath id="SVGID_6_">
		<use xlink:href="#SVGID_5_"  overflow="visible"/>
	</clipPath>
</g>
<g>
	<defs>
		<rect id="SVGID_7_" width="2000" height="645"/>
	</defs>
	<clipPath id="SVGID_8_">
		<use xlink:href="#SVGID_7_"  overflow="visible"/>
	</clipPath>
</g>
<g>
	<defs>
		<rect id="SVGID_9_" width="2000" height="645"/>
	</defs>
	<clipPath id="SVGID_10_">
		<use xlink:href="#SVGID_9_"  overflow="visible"/>
	</clipPath>
</g>
<g>
	<defs>
		<rect id="SVGID_11_" width="2000" height="645"/>
	</defs>
	<clipPath id="SVGID_12_">
		<use xlink:href="#SVGID_11_"  overflow="visible"/>
	</clipPath>
</g>
</svg>
