<?xml version="1.0" encoding="UTF-8" standalone="no"?>
<!-- Created with Inkscape (http://www.inkscape.org/) -->

<svg
   version="1.1"
   id="svg178"
   width="500"
   height="500"
   viewBox="0 0 500.00001 500"
   sodipodi:docname="Vector file (1).ai"
   xmlns:inkscape="http://www.inkscape.org/namespaces/inkscape"
   xmlns:sodipodi="http://sodipodi.sourceforge.net/DTD/sodipodi-0.dtd"
   xmlns:xlink="http://www.w3.org/1999/xlink"
   xmlns="http://www.w3.org/2000/svg"
   xmlns:svg="http://www.w3.org/2000/svg">
  <defs
     id="defs182">
    <linearGradient
       inkscape:collect="always"
       id="linearGradient8355">
      <stop
         style="stop-color:#fddbfa;stop-opacity:1;"
         offset="0.21783395"
         id="stop8351" />
      <stop
         style="stop-color:#6b89db;stop-opacity:1;"
         offset="1"
         id="stop8353" />
    </linearGradient>
    <linearGradient
       inkscape:collect="always"
       id="linearGradient6893">
      <stop
         style="stop-color:#fddbfa;stop-opacity:1;"
         offset="0.42975366"
         id="stop6889" />
      <stop
         style="stop-color:#6b89db;stop-opacity:1;"
         offset="1"
         id="stop6891" />
    </linearGradient>
    <linearGradient
       inkscape:collect="always"
       id="linearGradient947">
      <stop
         style="stop-color:#fddbfa;stop-opacity:1;"
         offset="0.17041799"
         id="stop943" />
      <stop
         style="stop-color:#6b89db;stop-opacity:1;"
         offset="1"
         id="stop945" />
    </linearGradient>
    <linearGradient
       inkscape:collect="always"
       xlink:href="#linearGradient947"
       id="linearGradient949"
       x1="619.37"
       y1="600"
       x2="980.63"
       y2="600"
       gradientUnits="userSpaceOnUse" />
    <linearGradient
       inkscape:collect="always"
       xlink:href="#linearGradient6893"
       id="linearGradient6887"
       gradientUnits="userSpaceOnUse"
       x1="718.03986"
       y1="849.57678"
       x2="696.22858"
       y2="363.96613" />
    <linearGradient
       inkscape:collect="always"
       xlink:href="#linearGradient8355"
       id="linearGradient7623"
       gradientUnits="userSpaceOnUse"
       x1="601.95764"
       y1="690.93109"
       x2="998.04242"
       y2="456.83194" />
    <linearGradient
       inkscape:collect="always"
       xlink:href="#linearGradient947"
       id="linearGradient8357"
       gradientUnits="userSpaceOnUse"
       x1="619.37"
       y1="600"
       x2="980.63"
       y2="600" />
    <linearGradient
       inkscape:collect="always"
       xlink:href="#linearGradient947"
       id="linearGradient8359"
       gradientUnits="userSpaceOnUse"
       x1="619.37"
       y1="600"
       x2="980.63"
       y2="600" />
  </defs>
  <sodipodi:namedview
     id="namedview180"
     pagecolor="#505050"
     bordercolor="#eeeeee"
     borderopacity="1"
     inkscape:showpageshadow="0"
     inkscape:pageopacity="0"
     inkscape:pagecheckerboard="0"
     inkscape:deskcolor="#505050"
     showgrid="false" />
  <g
     id="g186"
     inkscape:groupmode="layer"
     inkscape:label="Page 1"
     transform="matrix(1.3333333,0,0,-1.3333333,0,1600)">
    <g
       id="g188"
       style="fill:url(#linearGradient949);fill-opacity:1">
      <g
         id="g190"
         style="fill:url(#linearGradient6887);fill-opacity:1"
         transform="matrix(0.64921468,0,0,0.64921468,-331.36871,622.56307)">
        <g
           id="g196"
           style="fill:url(#linearGradient8359);fill-opacity:1">
          <g
             id="g198"
             style="fill:url(#linearGradient8357);fill-opacity:1">
            <path
               d="m 619.37,760.395 c 0,-4.67 1.55,-9.85 4.03,-14.53 v 0 c 2.96,-5.48 7.18,-10.37 11.9,-13.09 v 0 l 3.94,-2.27 c 0.05,-0.02 8.68,-5.01 8.68,-5.01 v 0 l 23.07,-13.31 41.06,-23.74 4.08,-2.34 42.35,-24.43 119,-68.71 v -29.7 l -31.28,18.06 -20.26,11.74 -182.05,105.07 -4.03,2.33 v -100.7 c 0,-4.65 1.55,-9.8 4.01,-14.5 v 0 c 2.74,-5.18 6.68,-9.78 11.07,-12.57 v 0 l 0.88,-0.53 12.6,-7.3 46.14,-26.65 12.52,-7.23 31.32,-18.08 119.22,-68.85 0.02,-17.47 v -7.56 l 0.03,-4.7 c -0.03,0 -51.61,29.82 -51.61,29.82 v 0 l -148.84,85.89 -4.03,2.34 v -100.68 c 0,-4.63 1.52,-9.81 4.01,-14.51 v 0 c 2.95,-5.51 7.2,-10.37 11.95,-13.12 v 0 l 69.8,-40.29 16.82,-9.71 c 0.03,-0.03 0.07,-0.05 0.11,-0.09 v 0 l 3.69,-2.13 12.39,-7.16 3.15,-1.82 c 0.01,-0.01 0.02,-0.01 0.03,-0.02 v 0 c 4.91,-2.51 10.47,-3.92 16.36,-3.92 v 0 c 5.83,0 11.33,1.38 16.2,3.85 v 0 l 3.66,2.12 129.97,75.12 2.6,1.5 c 0.03,0.02 0.07,0.04 0.1,0.06 v 0 c 9.98,6.4 16.6,17.59 16.6,30.33 v 0 182.93 c -0.11,1.29 -0.23,2.58 -0.47,3.84 v 0 c -0.72,3.99 -2.27,7.83 -4.3,11.31 v 0 c -2.91,5.01 -6.89,9.4 -11.28,11.91 v 0 l -19.71,11.35 c -0.04,0.05 -15.93,9.19 -15.93,9.19 v 0 l -15.96,9.18 -14.56,8.4 -5.13,2.94 c -4.39,2.55 -10.16,5.89 -15.96,9.23 v 0 l -51.62,29.77 -195.73,113.01 -6.58,3.77 -4.03,2.34 z"
               style="fill:url(#linearGradient7623);fill-opacity:1;stroke:none"
               id="path206" />
          </g>
        </g>
      </g>
    </g>
  </g>
</svg>
