<?xml version="1.0" encoding="utf-8"?>
<!-- Generator: Adobe Illustrator 27.1.1, SVG Export Plug-In . SVG Version: 6.00 Build 0)  -->
<svg version="1.1" id="Слой_1" xmlns="http://www.w3.org/2000/svg" xmlns:xlink="http://www.w3.org/1999/xlink" x="0px" y="0px"
	 viewBox="0 0 2000 500" style="enable-background:new 0 0 2000 500;" xml:space="preserve">
<style type="text/css">
	.st0{fill-rule:evenodd;clip-rule:evenodd;}
</style>
<g>
	<g>
		<path class="st0" d="M117.8,273.7l36.1,21.1v-55.6l-36.1-21.1V273.7z"/>
		<path class="st0" d="M59.3,405.6l36.1,21V314.9l-36.1-21.1V405.6z"/>
		<path class="st0" d="M36.6,349.2v-19.8v-9.7L0.5,298.7v71.6l36.1,21.1V349.2z"/>
		<path class="st0" d="M117.8,315.6v82v42.1l13.8,8.1l22.3,13v-42.1v-62.1v-19.8v-22.3v-4.7l-36.1-21.1V315.6z"/>
		<path class="st0" d="M211.9,269.9v-0.7l52.7-30.8l22.9-13.4v26.8v45.3l-75.6,44.1V269.9z M36.6,302.7V153.5v-2.9l53.2-31.1
			l36.1-21.1l80.8-47.2l153.2,89.4l17,9.9v22.3v176.4l-164.9,96.2v-62.1l53.2-31.1l58.5-34.1v-45.3v-23v-45.9v-22.3l-17-9.9
			l-41.5-24.2l-53.2-31.1l-5.2-3l-88.8,51.9l33.8,22.4l55.1-32.2l5.2,3l58.7,34.2l-42.1,24.5l-16.6,9.7l-34.3,20l-1.7,1v42.1v36
			v42.1v62.1v42.1l30.8,18l5.2-3l97.9-57.1L413,370.5V250v-98v-22.3l-17-9.9l-86.1-50.3L206.7,9.2l-80.9,47.2l-22.2,13l-13.8,8
			L0.5,129.6v143.6v8.5L36.6,302.7z"/>
	</g>
	<path class="st0" d="M594.6,198c0-37.4-27.6-60-69.7-60h-69.7v188.3h21v-66.5h45.2C561.1,259.9,594.6,238.9,594.6,198z
		 M573.3,198.8c0,25-20.2,41.7-51.1,41.7h-46v-82.9h47.1C553.4,157.7,573.3,171.7,573.3,198.8z M640.4,264.5h109.1
		c0.2-2.4,0.2-4.6,0.2-6.5c0-40.9-23.4-73.7-64.1-73.7c-38.1,0-66,32.3-66,72.6c0,43.3,30.9,72.7,68.7,72.7
		c26.1,0,42.8-10.5,56.7-26.1l-12.8-11.6c-11.2,11.8-24.5,19.7-43.4,19.7C664.6,311.5,643.3,294.6,640.4,264.5z M640.4,249.1
		c2.7-27.2,20.8-47.4,44.7-47.4c27.4,0,41.8,22,43.9,47.4H640.4z M920.6,256.7c0-39.5-30.4-72.3-71.6-72.3
		c-41.5,0-71.9,33.4-71.9,72.9c0,39.5,30.1,72.3,71.3,72.3C890,329.6,920.6,296.2,920.6,256.7z M899.6,257.2
		c0,29.8-20.8,53.8-50.5,53.8c-29,0-50.8-24.2-50.8-54.3c0-30.1,20.5-54.1,50.3-54.1C877.5,202.6,899.6,226.8,899.6,257.2z
		 M1096.5,256.7c0-46-32.7-72.3-65.7-72.3c-25.3,0-41.5,14.2-52.7,30.9v-27.9h-20.5v182.1H978v-69.7c10.7,15.6,27.2,29.6,52.7,29.6
		C1064,329.3,1096.5,302.4,1096.5,256.7z M1075.4,256.9c0,33.9-21.8,53.8-48.4,53.8c-25.5,0-49.7-21.5-49.7-54.1
		c0-32.3,24.2-53.8,49.7-53.8C1053.1,202.8,1075.4,223.8,1075.4,256.9z M1156.6,326.3V129.9h-20.5v196.4H1156.6z M1216.5,264.5
		h109.1c0.2-2.4,0.2-4.6,0.2-6.5c0-40.9-23.4-73.7-64.1-73.7c-38.1,0-66,32.3-66,72.6c0,43.3,30.8,72.7,68.7,72.7
		c26.1,0,42.8-10.5,56.7-26.1l-12.8-11.6c-11.2,11.8-24.5,19.7-43.4,19.7C1240.7,311.5,1219.4,294.6,1216.5,264.5z M1216.5,249.1
		c2.6-27.2,20.8-47.4,44.7-47.4c27.4,0,41.8,22,43.9,47.4H1216.5z M1358.8,129.9h40.5v196.4h-40.5V129.9z M1507.8,294.3
		c5.8,0,11-1,15.5-3.1c4.5-2.1,8.4-4.9,11.6-8.5c3.2-3.6,5.6-7.7,7.3-12.5c1.7-4.7,2.5-9.8,2.5-15.2v-0.5c0-5.4-0.9-10.5-2.6-15.2
		c-1.7-4.7-4.3-9-7.7-12.7c-3.4-3.7-7.4-6.6-12-8.8c-4.6-2.1-9.7-3.2-15.2-3.2c-5.8,0-11,1-15.5,3.1c-4.5,2.1-8.4,4.9-11.6,8.5
		c-3.2,3.6-5.7,7.7-7.3,12.5c-1.7,4.7-2.5,9.8-2.5,15.2v0.5c0,5.4,0.9,10.5,2.6,15.2c1.7,4.7,4.3,8.9,7.7,12.7
		c3.4,3.7,7.3,6.6,11.9,8.8C1497,293.3,1502.2,294.3,1507.8,294.3z M1507.3,329.6c-11,0-21.2-1.9-30.6-5.8
		c-9.4-3.8-17.5-9.1-24.3-15.9c-6.8-6.7-12.2-14.6-16.1-23.7c-3.9-9.1-5.8-18.8-5.8-29.2v-0.5c0-10.4,1.9-20.2,5.8-29.2
		c3.9-9.1,9.3-17,16.2-23.8c6.9-6.8,15.1-12.2,24.5-16.1c9.4-4,19.7-5.9,30.8-5.9c11,0,21.2,1.9,30.6,5.8
		c9.4,3.8,17.5,9.1,24.3,15.9c6.8,6.7,12.2,14.6,16.1,23.7c3.9,9.1,5.8,18.8,5.8,29.2v0.5c0,10.4-1.9,20.2-5.8,29.2
		c-3.9,9.1-9.3,17-16.2,23.8c-6.9,6.8-15.1,12.2-24.5,16.1C1528.8,327.6,1518.5,329.6,1507.3,329.6z M1682.7,280.6
		c4.9,0,9.6-0.8,13.9-2.4c4.3-1.6,7.9-3.9,11-6.9c3.1-3,5.5-6.5,7.4-10.6c1.7-4.1,2.6-8.6,2.6-13.5v-0.5c0-4.9-0.9-9.3-2.6-13.5
		c-1.7-4.1-4.2-7.7-7.4-10.6c-3.1-3-6.8-5.2-11-6.9c-4.3-1.6-8.9-2.4-13.9-2.4c-4.9,0-9.5,0.8-13.7,2.4c-4.2,1.6-7.8,3.9-10.9,6.9
		c-3.1,3-5.5,6.5-7.3,10.6c-1.7,4.1-2.7,8.6-2.7,13.5v0.5c0,10,3.3,18.1,9.8,24.2C1664.5,277.6,1672.7,280.6,1682.7,280.6z
		 M1677.9,369.9c-11.7,0-22.9-1.3-33.5-3.9c-10.7-2.6-20.5-6.3-29.5-11.1l13.9-30.7c7.5,4.1,14.9,7.4,22.5,9.7
		c7.5,2.3,16.1,3.5,25.7,3.5c13.9,0,24.1-3.3,30.7-9.9c6.6-6.6,10-16.4,10-29.4v-7c-6,7.4-12.6,13.1-19.7,17.2
		c-7.1,4.1-16.1,6.2-26.9,6.2c-8.3,0-16.3-1.5-24-4.4c-7.7-3-14.4-7.3-20.2-13c-5.8-5.7-10.5-12.8-14-21.1
		c-3.4-8.3-5.2-17.9-5.2-28.6v-0.6c0-10.8,1.7-20.3,5.3-28.7c3.6-8.3,8.3-15.4,14.1-21.1c5.8-5.7,12.6-10.1,20.2-13
		c7.7-3,15.5-4.4,23.7-4.4c11,0,20.1,2.1,27.2,6.2c7.1,4.1,13.4,9.3,18.9,15.3v-18.8h40.5v111.7c0,25.6-6,44.6-18.1,56.8
		c-6.7,6.8-15.2,11.8-25.4,14.8C1703.7,368.4,1691.7,369.9,1677.9,369.9z M1795.5,182.1h40.5v144.2h-40.5V182.1z M1794.4,129.9h42.6
		v36.3h-42.6V129.9z M1941.3,329.6c-10.7,0-20.5-1.9-29.7-5.9c-9.2-4-17-9.3-23.6-16c-6.6-6.7-11.7-14.6-15.4-23.7
		c-3.7-9.1-5.6-18.7-5.6-28.9v-0.5c0-10.2,1.9-19.9,5.6-29c3.7-9.1,8.9-17.1,15.4-23.9c6.6-6.8,14.4-12.2,23.6-16.1
		c9.2-4,19.2-5.9,30.2-5.9c13.5,0,24.6,2.1,33.5,6.5c8.9,4.3,16.7,10.2,23.4,17.8l-24.8,26.9c-4.6-4.9-9.3-8.7-14.2-11.6
		c-4.9-2.9-11-4.3-18.2-4.3c-5.1,0-9.8,1-14,3.1c-4.2,2.1-7.8,4.9-10.9,8.5c-3.1,3.6-5.5,7.7-7.2,12.5c-1.7,4.7-2.5,9.8-2.5,15.2
		v0.5c0,5.5,0.8,10.8,2.5,15.6c1.7,4.9,4.1,9.1,7.3,12.7c3.2,3.6,7,6.4,11.4,8.5c4.5,2.1,9.4,3.1,14.9,3.1c6.7,0,12.6-1.4,17.7-4.1
		c5.1-2.8,10.1-6.5,15.1-11.1l23.7,24.2c-6.9,7.7-14.8,14-23.7,18.9C1967.1,327.1,1955.5,329.6,1941.3,329.6z"/>
</g>
</svg>
