<svg width="97" height="32" viewBox="0 0 97 32" fill="none" xmlns="http://www.w3.org/2000/svg">
<path d="M24.8592 12.2544H17.6C16.1827 12.2557 14.8238 12.8193 13.8215 13.8215C12.8193 14.8237 12.2557 16.1826 12.2544 17.6V22.1664C12.2534 22.2597 12.2709 22.3523 12.3058 22.4389C12.3408 22.5254 12.3926 22.6041 12.4583 22.6705C12.5239 22.7369 12.602 22.7896 12.6882 22.8255C12.7743 22.8615 12.8667 22.88 12.96 22.88H14.8432C17.5401 22.8803 20.1387 21.8675 22.1241 20.0424C24.1096 18.2173 25.337 15.7129 25.5632 13.0256C25.5719 12.9278 25.5601 12.8293 25.5287 12.7363C25.4973 12.6433 25.4469 12.5578 25.3807 12.4853C25.3145 12.4128 25.234 12.3548 25.1442 12.3151C25.0545 12.2753 24.9574 12.2547 24.8592 12.2544Z" fill="url(#paint0_linear_146_1509)"/>
<path d="M25.5632 9.8544C25.338 7.16664 24.1109 4.66166 22.1252 2.83632C20.1396 1.01098 17.5404 -0.00138634 14.8432 1.42488e-06H12.96C12.7729 1.42488e-06 12.5934 0.0743408 12.4611 0.206666C12.3287 0.338992 12.2544 0.518465 12.2544 0.705602V5.28C12.2561 6.69707 12.8199 8.0556 13.8221 9.05747C14.8242 10.0593 16.1829 10.6227 17.6 10.624H24.856C24.9543 10.6241 25.0515 10.6038 25.1416 10.5644C25.2316 10.5249 25.3124 10.4672 25.3789 10.3948C25.4454 10.3224 25.4962 10.237 25.5279 10.144C25.5596 10.0509 25.5716 9.95233 25.5632 9.8544Z" fill="url(#paint1_linear_146_1509)"/>
<path d="M5.28 0H0.705601C0.518594 0.000422616 0.339366 0.0748996 0.207131 0.207134C0.0748972 0.339368 0.000422616 0.518594 0 0.705601V5.28C-6.34365e-08 6.69874 0.563482 8.05939 1.56653 9.06274C2.56958 10.0661 3.93006 10.63 5.3488 10.6304H9.92C10.0128 10.6304 10.1047 10.6121 10.1904 10.5765C10.2761 10.541 10.354 10.4889 10.4195 10.4232C10.485 10.3575 10.537 10.2795 10.5723 10.1937C10.6077 10.1079 10.6258 10.016 10.6256 9.9232V5.3488C10.6256 3.93076 10.0625 2.57076 9.0601 1.56776C8.0577 0.564756 6.69804 0.000848361 5.28 0Z" fill="url(#paint2_linear_146_1509)"/>
<path d="M5.3104 12.2544H5.28C3.87966 12.2544 2.53667 12.8107 1.54648 13.8009C0.556285 14.7911 0 16.1341 0 17.5344V26.6544C0.00456465 28.0649 0.564627 29.4169 1.55888 30.4174C2.55313 31.418 3.90153 31.9865 5.312 32H9.92C10.0127 32 10.1044 31.9817 10.19 31.9463C10.2756 31.9108 10.3534 31.8588 10.4189 31.7933C10.4845 31.7278 10.5364 31.65 10.5719 31.5644C10.6074 31.4788 10.6256 31.3871 10.6256 31.2944V17.6C10.6214 16.1888 10.0611 14.8361 9.06604 13.8354C8.07101 12.8347 6.72156 12.2666 5.3104 12.2544Z" fill="url(#paint3_linear_146_1509)"/>
<path d="M43.517 10.2225C42.6413 9.40969 41.3703 9.00382 39.7042 9.00488H34.8994V23.8081H36.8434V17.6977H39.6994C41.4231 17.6977 42.7085 17.2886 43.5554 16.4705C44.4023 15.6524 44.8258 14.6092 44.8258 13.3409C44.829 12.0737 44.3927 11.0342 43.517 10.2225ZM42.0866 15.4241C41.5618 15.9148 40.7661 16.1601 39.6994 16.1601H36.8418V10.5601H39.6994C41.8061 10.5601 42.8599 11.4929 42.861 13.3585C42.8642 14.2438 42.6061 14.9324 42.0866 15.4241Z" fill="#262338"/>
<path d="M55.5106 18.7201C55.5106 19.8934 55.2226 20.7873 54.6466 21.4017C54.0706 22.0161 53.2834 22.3259 52.285 22.3313C51.2877 22.3313 50.501 22.0214 49.925 21.4017C49.349 20.7819 49.0605 19.8881 49.0594 18.7201V12.0801H47.1394V19.0401C47.1394 20.6209 47.5735 21.8417 48.4418 22.7025C48.867 23.1272 49.3743 23.4609 49.9327 23.6832C50.4912 23.9054 51.089 24.0116 51.6898 23.9953C53.4551 23.9953 54.7293 23.3019 55.5122 21.9153V23.8081H57.4594V12.0801H55.5106V18.7201Z" fill="#262338"/>
<path d="M59.9539 13.6609H65.6146L59.9539 22.2273V23.8081H67.8146V22.2273H62.1555L67.8146 13.6609V12.0801H59.9539V13.6609Z" fill="#262338"/>
<path d="M70.0017 13.6609H75.6625L70.0017 22.2273V23.8081H77.8625V22.2273H72.2017L77.8625 13.6609V12.0801H70.0017V13.6609Z" fill="#262338"/>
<path d="M82.3058 8H80.3618V23.808H82.3058V8Z" fill="#262338"/>
<path d="M96.0195 17.4641C96.0195 15.8396 95.5033 14.5063 94.4707 13.4641C93.4382 12.422 92.0712 11.8988 90.3699 11.8945C88.6632 11.8945 87.2765 12.4465 86.2099 13.5505C85.1432 14.6545 84.6099 16.1175 84.6099 17.9393C84.6099 19.7633 85.1368 21.2305 86.1907 22.3409C87.2445 23.4513 88.6125 24.0044 90.2947 24.0001C91.6622 24.0001 92.7982 23.6652 93.7027 22.9953C94.5814 22.3606 95.2474 21.4749 95.6131 20.4545H93.5203C93.2673 21.0339 92.8473 21.5247 92.3139 21.8641C91.7076 22.2362 91.0057 22.4225 90.2947 22.4001C89.2408 22.4001 88.3757 22.0615 87.6995 21.3841C87.0232 20.7068 86.6563 19.7847 86.5987 18.6177H95.9347C95.993 18.236 96.0214 17.8503 96.0195 17.4641ZM86.6211 17.2065C86.6915 16.0535 87.0685 15.1468 87.7523 14.4865C88.4607 13.8434 89.3843 13.4889 90.3411 13.4927C91.2979 13.4966 92.2186 13.8585 92.9219 14.5073C93.6195 15.1847 93.9758 16.0855 93.9907 17.2097L86.6211 17.2065Z" fill="#262338"/>
<defs>
<linearGradient id="paint0_linear_146_1509" x1="24.696" y1="11.536" x2="11.8976" y2="21.8016" gradientUnits="userSpaceOnUse">
<stop stop-color="#0052CC"/>
<stop offset="1" stop-color="#2684FF"/>
</linearGradient>
<linearGradient id="paint1_linear_146_1509" x1="25.3333" y1="10.6667" x2="12.3333" y2="-3.6548e-07" gradientUnits="userSpaceOnUse">
<stop stop-color="#0052CC"/>
<stop offset="1" stop-color="#2684FF"/>
</linearGradient>
<linearGradient id="paint2_linear_146_1509" x1="10.44" y1="10.6731" x2="-1.71527" y2="2.71668" gradientUnits="userSpaceOnUse">
<stop stop-color="#0052CC"/>
<stop offset="1" stop-color="#2684FF"/>
</linearGradient>
<linearGradient id="paint3_linear_146_1509" x1="6.3073e-08" y1="12.3333" x2="15.5214" y2="17.547" gradientUnits="userSpaceOnUse">
<stop stop-color="#0052CC"/>
<stop offset="1" stop-color="#2684FF"/>
</linearGradient>
</defs>
</svg>
