<?xml version="1.0" encoding="UTF-8"?>
<svg xmlns="http://www.w3.org/2000/svg" xmlns:xlink="http://www.w3.org/1999/xlink" width="26px" height="26px" viewBox="0 0 26 26" version="1.1">
<g id="surface1">
<path style=" stroke:none;fill-rule:nonzero;fill:rgb(96.470588%,10.980392%,5.098039%);fill-opacity:1;" d="M 20.601562 3.800781 L 5.398438 3.800781 C 2.417969 3.800781 0 6.21875 0 9.199219 L 0 16.800781 C 0 19.78125 2.417969 22.199219 5.398438 22.199219 L 20.601562 22.199219 C 23.582031 22.199219 26 19.78125 26 16.800781 L 26 9.199219 C 26 6.21875 23.582031 3.800781 20.601562 3.800781 Z M 16.949219 13.371094 L 9.839844 16.761719 C 9.648438 16.851562 9.429688 16.710938 9.429688 16.503906 L 9.429688 9.507812 C 9.429688 9.296875 9.65625 9.160156 9.84375 9.253906 L 16.953125 12.859375 C 17.164062 12.964844 17.160156 13.269531 16.949219 13.371094 Z M 16.949219 13.371094 "/>
</g>
</svg>
